<?xml version="1.0" encoding="utf-8"?>
<!-- Generator: Adobe Illustrator 23.1.0, SVG Export Plug-In . SVG Version: 6.00 Build 0)  -->
<svg version="1.1" id="Layer_1" xmlns="http://www.w3.org/2000/svg" xmlns:xlink="http://www.w3.org/1999/xlink" x="0px" y="0px"
	 viewBox="0 0 199.5 54" style="enable-background:new 0 0 199.5 54;" xml:space="preserve">
<style type="text/css">
	.st0{fill:#6D6868;}
	.st1{fill:#00ABBE;}
</style>
<path class="st0" d="M145.5,26.4c0-0.4,0.2-0.7,0.4-1c0.9-1.1,2.8-1.1,4.1-0.9c0.2,0,0.5,0.1,0.7,0.1c1.3,0.3,2.5,0.9,3.6,1.5
	c4,2.4,7.1,6,10.6,9c1.2,1.1,2.6,2,4.2,2.5c0.8,0.2,1.7,0.3,2.6,0.3c0.5,0,1-0.1,1.5-0.2c0.4-0.1,1.2-0.1,1.6-0.4
	c0,0-3.7,2.9-10,1.1c-5.3-1.5-8.1-6.6-13.8-10.7C147.2,25.1,145.5,26.4,145.5,26.4L145.5,26.4z"/>
<path class="st1" d="M164.3,29.5c-2.3-0.6-4-0.7-5-0.7c-1.2-1.2-3.9-3.5-8.2-4.9c0.6-0.9,2.5-2.5,7.2-1.7c6.7,1.1,8.1,4.4,15.4,5.6
	c8.1,1.3,12.3-3.7,12.3-3.7C179.6,33.5,171.9,31.5,164.3,29.5L164.3,29.5z"/>
<path class="st1" d="M171.2,0.8c0.4,0,0.9-0.1,1.4-0.1c7.4,0,13.5,6,13.5,13.5c0,5.3-3.1,9.9-7.6,12.1c2.7-2.8,4.4-6.5,4.4-10.7
	C182.8,8.4,177.9,2.4,171.2,0.8L171.2,0.8z"/>
<path class="st0" d="M191.7,20.5c0-5.4-1.9-10.3-5.1-14.2c5.3,4.1,8.6,10.4,8.6,17.6c0,12.3-9.9,22.2-22.2,22.2
	c-6.9,0-13-3.1-17.1-8c3.8,2.9,8.5,4.6,13.6,4.6C181.7,42.7,191.7,32.8,191.7,20.5L191.7,20.5z"/>
<path class="st1" d="M198.8,29c0,0.4,0,0.8,0,1.2c0,11.9-9.7,21.6-21.6,21.6c-6.8,0-12.8-3.1-16.8-8c4,2.9,9,4.6,14.3,4.6
	C186.6,48.5,196.5,40.2,198.8,29z"/>
<path class="st0" d="M134.5,19.4c-0.3-0.5-0.7-0.9-1.2-1.2c-0.5-0.3-1.1-0.4-1.8-0.4c-0.6,0-1.4,0.1-2.5,0.3v4.6h-0.8
	c-0.1,0-0.1,0-0.1,0c0,0,0,0.1,0,0.1v1.3c0,0,0,0.1,0,0.1c0,0,0.1,0,0.1,0h6c0.5-1.3,0.8-2.4,0.8-3.2
	C135,20.4,134.8,19.9,134.5,19.4L134.5,19.4z M132.9,22.7h-2.1v-3.3c0.3-0.1,0.6-0.1,0.8-0.1c1,0,1.6,0.6,1.6,1.7
	C133.1,21.6,133.1,22.1,132.9,22.7L132.9,22.7z M128.3,22.8C128.3,22.8,128.3,22.7,128.3,22.8c-0.6,0-1-0.1-1.2-0.2
	c-0.2-0.1-0.4-0.2-0.6-0.4c0-0.3,0.1-0.5,0.1-0.6v-4.1h-1.8v3.8c0,0.5-0.1,0.9-0.3,1.1c-0.2,0.2-0.5,0.4-0.8,0.4
	c-0.3,0-0.7-0.1-0.9-0.3c-0.3-0.2-0.4-0.5-0.4-0.9v-3.6h-1.8v3.3c0,0.4-0.1,0.8-0.4,1.1c-0.2,0.3-0.5,0.4-0.9,0.4h-0.8v-4.8h-1.8
	v4.8h-1.3c-0.1,0-0.1,0-0.1,0c0,0,0,0.1,0,0.1v1.3c0,0,0,0.1,0,0.1c0,0,0,0,0.1,0h4.4c0.8,0,1.4-0.3,1.9-0.8
	c0.2,0.3,0.5,0.5,0.9,0.6c0.3,0.1,0.8,0.2,1.4,0.2c0.4,0,0.8-0.1,1.2-0.3c0.4-0.2,0.7-0.4,0.9-0.7c0.3,0.4,0.6,0.6,0.9,0.8
	c0.3,0.1,0.8,0.2,1.3,0.2c0,0,0.1,0,0.1,0c0,0,0-0.1,0-0.1L128.3,22.8C128.3,22.8,128.3,22.8,128.3,22.8L128.3,22.8z M113.2,15.3
	v1.6h1.8v-1.6H113.2z M110.7,15.3v1.6h1.8v-1.6H110.7z M115.5,22.8C115.5,22.8,115.5,22.7,115.5,22.8c-0.6,0-1-0.1-1.2-0.2
	c-0.2-0.1-0.4-0.2-0.6-0.4c0-0.2,0.1-0.4,0.1-0.7v-3.7H112v3.4c0,0.4-0.1,0.8-0.4,1.1c-0.2,0.3-0.5,0.4-0.9,0.4h-1.1
	c-0.1,0-0.1,0-0.1,0c0,0,0,0.1,0,0.1v1.3c0,0,0,0.1,0,0.1c0,0,0,0,0.1,0h1.7c0.4,0,0.8-0.1,1.1-0.3c0.3-0.2,0.6-0.4,0.8-0.7
	c0.3,0.4,0.6,0.6,0.9,0.7c0.3,0.1,0.8,0.2,1.3,0.2c0.1,0,0.1,0,0.1,0c0,0,0-0.1,0-0.1L115.5,22.8C115.6,22.8,115.6,22.8,115.5,22.8
	L115.5,22.8z M103.1,15.3v1.6h1.8v-1.6H103.1z M101.9,13.3v1.4h1.6v-1.4H101.9z M100.6,15.3v1.6h1.8v-1.6H100.6z M109.7,22.8
	c0,0-0.1,0-0.1,0c-0.5,0-0.9,0-1.1-0.1c-0.2-0.1-0.4-0.2-0.6-0.4c0-0.3,0.1-0.5,0.1-0.6v-4.1h-1.8v3.8c0,0.5-0.1,0.9-0.3,1.1
	c-0.2,0.2-0.5,0.4-0.8,0.4c-0.3,0-0.7-0.1-0.9-0.3c-0.3-0.2-0.4-0.5-0.4-0.9v-3.6h-1.8v3.3c0,0.4-0.1,0.8-0.4,1.1
	c-0.2,0.3-0.5,0.4-0.9,0.4h-0.8v-4.8h-1.8v4.8h-1.3c0,0-0.1,0-0.1,0c0,0,0,0.1,0,0.1v1.3c0,0,0,0.1,0,0.1c0,0,0.1,0,0.1,0h4.4
	c0.8,0,1.4-0.3,1.8-0.8c0.2,0.3,0.5,0.5,0.9,0.6c0.3,0.1,0.8,0.2,1.4,0.2c0.4,0,0.8-0.1,1.2-0.3c0.4-0.2,0.7-0.4,0.9-0.7
	c0.3,0.4,0.6,0.6,0.9,0.8c0.3,0.1,0.8,0.2,1.3,0.2c0.1,0,0.1,0,0.1,0c0,0,0-0.1,0-0.1L109.7,22.8C109.7,22.8,109.7,22.8,109.7,22.8
	L109.7,22.8z M92,15.3v1.6h1.8v-1.6H92z M96.9,22.8C96.9,22.8,96.9,22.7,96.9,22.8c-0.7,0-1.1-0.2-1.3-0.5c0.1-0.2,0.1-0.5,0.1-0.7
	v-3.5c-1.1-0.2-1.9-0.3-2.5-0.3c-0.7,0-1.2,0.1-1.8,0.4c-0.5,0.3-0.9,0.7-1.2,1.1c-0.3,0.5-0.5,1-0.5,1.5c0,0.8,0.3,1.4,0.8,1.9
	h-1.6c0,0-0.1,0-0.1,0c0,0,0,0.1,0,0.1v1.3c0,0,0,0.1,0,0.1c0,0,0,0,0.1,0h4.3c0.8,0,1.4-0.3,1.8-0.8c0.3,0.3,0.6,0.5,0.9,0.6
	c0.3,0.1,0.6,0.2,0.9,0.2c0,0,0.1,0,0.1,0c0,0,0-0.1,0-0.1L96.9,22.8C96.9,22.8,96.9,22.8,96.9,22.8z M93.9,21.2
	c0,0.3-0.1,0.7-0.2,0.9c-0.2,0.3-0.4,0.4-0.6,0.5c-0.4,0-0.8-0.2-1.1-0.5c-0.3-0.3-0.4-0.7-0.4-1.1c0-1.2,0.5-1.7,1.5-1.7
	c0.2,0,0.5,0,0.8,0.1V21.2L93.9,21.2z M89,22.8c0,0,0,0-0.1,0h-0.3c-0.3,0-0.6-0.1-0.7-0.3c-0.2-0.2-0.2-0.5-0.2-0.9v-5.1h-2.7
	c-1.1,0-1.9,0.3-2.4,0.8c-0.5,0.6-0.8,1.3-0.8,2.1v3.3h-2.3c-1.2,0-1.9-0.6-1.9-1.7v-3.1h-1.8v3.4c0,0.8,0.3,1.5,0.8,2.1
	c0.5,0.6,1.3,0.8,2.4,0.8h4.6v-4.6c0-1.1,0.6-1.7,1.9-1.7h0.4v3.8c0,0.7,0.2,1.3,0.6,1.8c0.4,0.4,0.9,0.7,1.6,0.7h0.8
	c0.1,0,0.1,0,0.1,0c0,0,0-0.1,0-0.1L89,22.8C89,22.8,89,22.8,89,22.8L89,22.8z M68,22.7c-0.4-0.5-0.5-1.1-0.5-1.6
	c0-0.5,0.2-0.9,0.5-1.1c0.3-0.3,0.8-0.4,1.4-0.4c0.4,0,1,0.1,1.6,0.4l0.6-1.5c-0.5-0.2-1-0.4-1.3-0.5c-0.4-0.1-0.7-0.2-1.1-0.2
	c-0.7,0-1.3,0.1-1.9,0.4c-0.5,0.3-0.9,0.7-1.2,1.2c-0.3,0.5-0.4,1-0.4,1.7c0,0.5,0.2,1.1,0.5,1.7h-1.2c0,0-0.1,0-0.1,0
	c0,0,0,0.1,0,0.1v1.3c0,0,0,0.1,0,0.1c0,0,0,0,0.1,0h6.7l0.4-1.5L68,22.7L68,22.7z M65,22.8c0,0,0,0-0.1,0h-0.3
	c-0.3,0-0.6-0.1-0.7-0.3c-0.2-0.2-0.2-0.5-0.2-0.9v-7h-1.8v7.3c0,0.7,0.2,1.3,0.6,1.8c0.4,0.4,0.9,0.7,1.6,0.7h0.8
	c0.1,0,0.1,0,0.1,0c0,0,0-0.1,0-0.1L65,22.8C65,22.8,65,22.8,65,22.8L65,22.8z M58,14.5v8.2h-1.3c0,0-0.1,0-0.1,0c0,0,0,0.1,0,0.1
	v1.3c0,0,0,0.1,0,0.1c0,0,0.1,0,0.1,0h3v-9.7H58z M54.1,25.3v1.6H56v-1.6H54.1z M51.6,25.3v1.6h1.8v-1.6H51.6z M56.9,22.8
	C56.9,22.8,56.8,22.7,56.9,22.8c-0.6,0-1-0.1-1.2-0.2c-0.2-0.1-0.4-0.2-0.6-0.4c0-0.2,0.1-0.4,0.1-0.7v-3.7h-1.8v3.4
	c0,0.4-0.1,0.8-0.4,1.1c-0.2,0.3-0.5,0.4-0.9,0.4h-1.1c0,0-0.1,0-0.1,0c0,0,0,0.1,0,0.1v1.3c0,0,0,0.1,0,0.1c0,0,0,0,0.1,0h1.7
	c0.4,0,0.8-0.1,1.1-0.3c0.3-0.2,0.6-0.4,0.8-0.7c0.3,0.4,0.6,0.6,0.9,0.7c0.3,0.1,0.8,0.2,1.3,0.2c0,0,0.1,0,0.1,0c0,0,0-0.1,0-0.1
	L56.9,22.8C56.9,22.8,56.9,22.8,56.9,22.8L56.9,22.8z M47.6,15.3v1.6h1.8v-1.6H47.6z M45,15.3v1.6h1.8v-1.6H45z M51,22.8
	c0,0,0,0-0.1,0h-0.3c-0.3,0-0.6-0.1-0.7-0.3c-0.2-0.2-0.2-0.5-0.2-0.9l0-3.4c-1.1-0.2-1.9-0.3-2.5-0.3c-0.7,0-1.3,0.1-1.8,0.4
	c-0.5,0.3-0.9,0.7-1.2,1.2c-0.3,0.5-0.4,1-0.4,1.6c0,0.6,0.1,1.2,0.4,1.7c0.3,0.5,0.6,0.9,1.1,1.1c0.5,0.3,1,0.4,1.6,0.4h0.3
	l0.7-1.5h-0.7c-0.5,0-0.9-0.1-1.1-0.4c-0.3-0.3-0.4-0.7-0.4-1.2c0-1.2,0.5-1.7,1.5-1.7c0.2,0,0.5,0,0.8,0.1v2.4
	c0,0.8,0.2,1.4,0.6,1.8c0.4,0.4,0.9,0.7,1.6,0.7h0.8c0.1,0,0.1,0,0.1,0c0,0,0-0.1,0-0.1L51,22.8C51.1,22.8,51.1,22.8,51,22.8
	L51,22.8z M37.7,14.5v9.7h1.8v-9.7H37.7z M33.8,14.5v8.2h-1.3c0,0-0.1,0-0.1,0c0,0,0,0.1,0,0.1v1.3c0,0,0,0.1,0,0.1c0,0,0.1,0,0.1,0
	h3v-9.7H33.8z M32.6,22.8C32.6,22.8,32.6,22.7,32.6,22.8c-0.5,0-0.8-0.1-1-0.2c-0.2-0.1-0.4-0.3-0.5-0.6l-1.6-4.1h-1.9l1.7,4.4
	c-0.6,0.3-1.3,0.5-2.2,0.5h-2l0.7,1.5h1.5c0.9,0,1.7-0.3,2.5-0.9c0.2,0.3,0.5,0.5,1,0.7c0.4,0.1,1,0.2,1.7,0.2c0,0,0.1,0,0.1,0
	c0,0,0-0.1,0-0.1L32.6,22.8C32.7,22.8,32.7,22.8,32.6,22.8z M21.8,17.8c-0.7,0-1.3,0.1-1.8,0.4c-0.5,0.3-0.9,0.7-1.2,1.2
	c-0.3,0.5-0.4,1-0.4,1.6c0,0.6,0.1,1.2,0.4,1.7c0.3,0.5,0.6,0.9,1.1,1.1c0.5,0.3,1,0.4,1.6,0.4h0.2l0.7-1.5h-0.6
	c-0.5,0-0.9-0.1-1.1-0.4c-0.3-0.3-0.4-0.7-0.4-1.2c0-1.2,0.5-1.7,1.5-1.7c0.2,0,0.5,0,0.8,0.1v4.4c0,0.4-0.1,0.7-0.2,1
	s-0.4,0.4-0.7,0.5c-0.3,0.1-0.7,0.2-1.3,0.3l0.7,1.6c0.7-0.1,1.3-0.3,1.7-0.5c0.5-0.2,0.8-0.6,1.1-1.1c0.3-0.5,0.4-1.1,0.4-1.9v-5.7
	C23.2,17.9,22.4,17.8,21.8,17.8L21.8,17.8z M15,14.5v8.2h-1.3c0,0-0.1,0-0.1,0c0,0,0,0.1,0,0.1v1.3c0,0,0,0.1,0,0.1s0,0,0.1,0h3
	v-9.7H15z M5.6,25.3v1.6h1.8v-1.6H5.6z M3.1,25.3v1.6h1.8v-1.6H3.1z M13.8,22.8c0,0,0,0-0.1,0h-0.3c-0.3,0-0.6-0.1-0.7-0.3
	c-0.2-0.2-0.2-0.5-0.2-0.9v-5.1H9.8c-1.1,0-1.9,0.3-2.4,0.8c-0.5,0.6-0.8,1.3-0.8,2.1v3.3H4.4c-1.2,0-1.9-0.6-1.9-1.7v-3.1H0.8v3.4
	c0,0.8,0.3,1.5,0.8,2.1C2,24,2.8,24.2,3.9,24.2h4.6v-4.6c0-1.1,0.6-1.7,1.9-1.7h0.4v3.8c0,0.7,0.2,1.3,0.6,1.8
	c0.4,0.4,0.9,0.7,1.6,0.7h0.8c0.1,0,0.1,0,0.1,0c0,0,0-0.1,0-0.1L13.8,22.8C13.9,22.8,13.9,22.8,13.8,22.8L13.8,22.8z"/>
<path class="st0" d="M4.8,28.8H3.6l-3.4,8h1.6l0.9-2.1h2.9l0.9,2.1h1.6L4.8,28.8L4.8,28.8z M3.3,33.4l0.9-2.4L5,33.4H3.3L3.3,33.4z"
	/>
<path class="st0" d="M8.8,28.8v8h1.4v-8H8.8z"/>
<path class="st0" d="M11.4,30.9v6h1.5v-6H11.4z M11.4,28.8v1.3h1.5v-1.3H11.4z"/>
<path class="st0" d="M18.8,30.9v0.9c-0.5-0.7-1.2-1.1-2-1.1c-0.9,0-1.6,0.3-2.2,1.1c-0.6,0.6-0.8,1.3-0.8,2.2s0.3,1.6,0.8,2.2
	c0.5,0.6,1.3,1,2.2,1c0.8,0,1.6-0.4,2-1h0v0.8h1.3v-6H18.8z M17,35.7c-1,0-1.8-0.8-1.8-1.7c0-1.1,0.7-1.9,1.8-1.9
	c1,0,1.7,0.8,1.7,1.8C18.8,34.9,18.1,35.7,17,35.7L17,35.7z"/>
<path class="st0" d="M24.8,28.8v8h1.5v-8H24.8z"/>
<path class="st0" d="M32.5,31.6c-0.1-0.1-0.1-0.1-0.2-0.2c-0.4-0.5-1.1-0.8-1.7-0.8s-1.3,0.3-1.6,0.8h0v-0.6h-1.3v6h1.4v-2.7
	c0-0.5,0-1.1,0.2-1.5c0.2-0.3,0.6-0.5,1-0.5c0.4,0,0.8,0.2,1,0.5c0.3,0.4,0.3,1,0.3,1.5v2.8H33v-3.1C33,33,33,32.2,32.5,31.6z"/>
<path class="st0" d="M35.9,30.9v-2h-1.5v2h-0.7v1.3h0.7v4.7h1.5v-4.7h0.9v-1.3H35.9z"/>
<path class="st0" d="M43.5,33.8c0-1.7-1.4-3.2-3.1-3.2c-1.8,0-3.2,1.5-3.2,3.3c0,1.8,1.4,3.2,3.2,3.2c1.3,0,2.5-0.9,2.9-1.9h-1.6
	c-0.3,0.3-0.8,0.5-1.4,0.5c-0.7,0-1.4-0.5-1.6-1.2h4.7C43.5,34.3,43.5,34.1,43.5,33.8L43.5,33.8z M38.7,33.2c0.2-0.7,1-1.2,1.7-1.2
	s1.4,0.4,1.6,1.2H38.7L38.7,33.2z"/>
<path class="st0" d="M47.1,30.7c-0.6,0-1,0.2-1.3,0.7h0v-0.5h-1.3v6h1.5v-3.2c0-0.5,0-0.9,0.4-1.3c0.2-0.2,0.6-0.3,0.9-0.3v-1.4
	L47.1,30.7L47.1,30.7z"/>
<path class="st0" d="M53.1,31.6c-0.1-0.1-0.1-0.1-0.2-0.2c-0.4-0.5-1.1-0.8-1.7-0.8c-0.6,0-1.3,0.3-1.6,0.8h0v-0.6h-1.3v6h1.4v-2.7
	c0-0.5,0-1.1,0.2-1.5c0.2-0.3,0.6-0.5,1-0.5c0.4,0,0.8,0.2,1,0.5c0.3,0.4,0.3,1,0.3,1.5v2.8h1.5v-3.1C53.5,33,53.5,32.2,53.1,31.6z"
	/>
<path class="st0" d="M59.5,30.9v0.9c-0.5-0.7-1.2-1.1-2-1.1c-0.9,0-1.6,0.3-2.2,1.1c-0.6,0.6-0.8,1.3-0.8,2.2s0.3,1.6,0.8,2.2
	c0.5,0.6,1.3,1,2.2,1c0.8,0,1.6-0.4,2-1h0v0.8h1.3v-6H59.5L59.5,30.9z M57.7,35.7c-1,0-1.8-0.8-1.8-1.7c0-1.1,0.7-1.9,1.8-1.9
	c1,0,1.7,0.8,1.7,1.8C59.5,34.9,58.7,35.7,57.7,35.7L57.7,35.7z"/>
<path class="st0" d="M63.6,30.9v-2h-1.4v2h-0.7v1.3h0.7v4.7h1.4v-4.7h0.9v-1.3H63.6z"/>
<path class="st0" d="M65.2,30.9v6h1.5v-6H65.2z M65.2,28.8v1.3h1.5v-1.3H65.2z"/>
<path class="st0" d="M70.8,30.7c-1.8,0-3.3,1.4-3.3,3.2s1.5,3.2,3.2,3.2c1.7,0,3.2-1.4,3.2-3.2S72.6,30.7,70.8,30.7L70.8,30.7z
	 M70.7,35.7c-1,0-1.7-0.8-1.7-1.8s0.8-1.8,1.7-1.8c1,0,1.8,0.8,1.8,1.8C72.5,34.9,71.8,35.7,70.7,35.7z"/>
<path class="st0" d="M79.7,31.6c-0.1-0.1-0.1-0.1-0.2-0.2c-0.4-0.5-1.1-0.8-1.7-0.8c-0.6,0-1.3,0.3-1.6,0.8h0v-0.6h-1.3v6h1.4v-2.7
	c0-0.5,0-1.1,0.2-1.5c0.2-0.3,0.6-0.5,1-0.5c0.4,0,0.8,0.2,1,0.5c0.3,0.4,0.3,1,0.3,1.5v2.8h1.5v-3.1C80.2,33,80.1,32.2,79.7,31.6z"
	/>
<path class="st0" d="M86.1,30.9v0.9c-0.5-0.7-1.2-1.1-2-1.1c-0.9,0-1.6,0.3-2.2,1.1c-0.6,0.6-0.8,1.3-0.8,2.2s0.3,1.6,0.8,2.2
	c0.5,0.6,1.3,1,2.2,1c0.8,0,1.6-0.4,2-1h0v0.8h1.3v-6H86.1z M84.3,35.7c-1,0-1.8-0.8-1.8-1.7c0-1.1,0.7-1.9,1.8-1.9
	c1,0,1.7,0.8,1.7,1.8C86.1,34.9,85.4,35.7,84.3,35.7z"/>
<path class="st0" d="M88.6,28.8v8H90v-8H88.6z"/>
<path class="st0" d="M99,28.8v3.2h-2.9v-3.2h-1.5v8h1.5v-3.4H99v3.4h1.5v-8H99z"/>
<path class="st0" d="M104.9,30.7c-1.8,0-3.2,1.4-3.2,3.2s1.4,3.2,3.2,3.2c1.7,0,3.2-1.4,3.2-3.2S106.7,30.7,104.9,30.7L104.9,30.7z
	 M104.9,35.7c-1,0-1.7-0.8-1.7-1.8s0.8-1.8,1.7-1.8c1,0,1.8,0.8,1.8,1.8C106.6,34.9,105.9,35.7,104.9,35.7z"/>
<path class="st0" d="M111,33.2c-0.3-0.1-0.8-0.2-0.8-0.6c0-0.3,0.3-0.5,0.6-0.5c0.3,0,0.5,0.2,0.6,0.4h1.4c0-1-0.9-1.9-1.9-1.9
	c-1.1,0-2,0.7-2,1.9c0,1,0.8,1.5,1.7,1.8c0.4,0.1,1,0.3,1,0.8c0,0.4-0.3,0.6-0.7,0.6c-0.4,0-0.7-0.3-0.8-0.7h-1.5
	c0,1.2,1,2.1,2.2,2.1c0.6,0,1.2-0.3,1.6-0.6c0.4-0.4,0.6-0.9,0.6-1.5C112.9,33.8,112,33.5,111,33.2L111,33.2z"/>
<path class="st0" d="M119.2,31.6c-0.9-1-3.2-1.4-4.1,0h0v-0.8h-1.3v8h1.5v-2.7h0c0.5,0.6,1.1,0.8,1.8,0.8c1.8,0,3-1.5,3-3.2
	C120,33,119.8,32.2,119.2,31.6z M116.8,35.7c-0.4,0-0.8-0.2-1.2-0.5c-0.4-0.3-0.6-0.8-0.6-1.3c0-1,0.8-1.8,1.8-1.8s1.7,0.8,1.7,1.8
	C118.6,34.9,117.8,35.7,116.8,35.7z"/>
<path class="st0" d="M120.9,30.9v6h1.5v-6H120.9z M120.9,28.8v1.3h1.5v-1.3H120.9z"/>
<path class="st0" d="M125.2,30.9v-2h-1.4v2H123v1.3h0.7v4.7h1.4v-4.7h0.9v-1.3H125.2z"/>
<path class="st0" d="M131.6,30.9v0.9c-0.5-0.7-1.2-1.1-2-1.1c-0.9,0-1.6,0.3-2.2,1.1c-0.6,0.6-0.8,1.3-0.8,2.2s0.3,1.6,0.8,2.2
	c0.5,0.6,1.3,1,2.2,1c0.8,0,1.6-0.4,2-1h0v0.8h1.3v-6H131.6L131.6,30.9z M129.8,35.7c-1,0-1.8-0.8-1.8-1.7c0-1.1,0.7-1.9,1.8-1.9
	c1,0,1.7,0.8,1.7,1.8C131.5,34.9,130.8,35.7,129.8,35.7z"/>
<path class="st0" d="M134,28.8v8h1.4v-8H134z"/>
</svg>
